<svg width="19" height="20" viewBox="0 0 19 20" fill="none" xmlns="http://www.w3.org/2000/svg">
<path d="M1.01465 3.494H0.761648C0.348648 3.494 0.0146484 3.159 0.0146484 2.747C0.0146484 2.335 0.348648 2 0.761648 2H6.01465V1C6.01465 0.465 6.48865 0 7.01465 0H11.0146C11.5406 0 12.0146 0.465 12.0146 1V2H17.2686C17.6806 2 18.0146 2.335 18.0146 2.747C18.0146 3.159 17.6806 3.494 17.2686 3.494H17.0146V18.929C17.0146 19.52 16.5666 20 16.0146 20C13.1416 20 4.88765 20 2.01465 20C1.46265 20 1.01465 19.52 1.01465 18.929V3.494ZM15.5146 3.494H2.51465V18.5H15.5146V3.494ZM11.2646 6C10.8506 6 10.5146 6.336 10.5146 6.75V15.25C10.5146 15.664 10.8506 16 11.2646 16C11.6786 16 12.0146 15.664 12.0146 15.25V6.75C12.0146 6.336 11.6786 6 11.2646 6ZM6.76465 6C6.35065 6 6.01465 6.336 6.01465 6.75V15.25C6.01465 15.664 6.35065 16 6.76465 16C7.17865 16 7.51465 15.664 7.51465 15.25V6.75C7.51465 6.336 7.17865 6 6.76465 6ZM10.5146 2V1.5H7.51465V2H10.5146Z" fill="white"/>
</svg>
